<svg width="37" height="37" viewBox="0 0 37 37" fill="none" xmlns="http://www.w3.org/2000/svg">
<path fill-rule="evenodd" clip-rule="evenodd" d="M18.0172 34.9083C27.3459 34.9083 34.9084 27.3459 34.9084 18.0171C34.9084 8.68841 27.3459 1.12598 18.0172 1.12598C8.68847 1.12598 1.12604 8.68841 1.12604 18.0171C1.12604 27.3459 8.68847 34.9083 18.0172 34.9083ZM25.604 14.6423C25.604 14.4734 25.604 14.301 25.5935 14.1356C26.3571 13.5831 27.0222 12.8899 27.5536 12.1087C26.8498 12.4148 26.0897 12.633 25.3014 12.7174C26.1143 12.2353 26.7266 11.4717 27.0187 10.5673C26.2656 11.0107 25.4211 11.3415 24.5378 11.5069C23.8234 10.7468 22.81 10.2753 21.6839 10.2753C19.298 10.2753 17.3133 12.4254 17.8658 15.0822C16.3111 15.0046 14.7902 14.6008 13.4018 13.8969C12.0135 13.193 10.7887 12.2048 9.80729 10.9966C9.46595 11.5738 9.27592 12.2389 9.27592 12.9673C9.27636 13.6107 9.43556 14.2441 9.73941 14.8113C10.0433 15.3785 10.4824 15.862 11.0178 16.2188C10.3809 16.1942 9.7721 16.0147 9.25481 15.7227V15.7719C9.253 16.6742 9.56363 17.5493 10.1339 18.2485C10.7042 18.9478 11.499 19.428 12.3832 19.6076C11.7639 19.766 11.2219 19.766 10.6202 19.678C11.1128 21.2264 12.5556 22.3524 14.2729 22.3876C12.9322 23.4363 11.2501 24.0556 9.4202 24.0556C9.09645 24.0556 8.79382 24.0416 8.47711 24.0064C10.2085 25.1148 12.2635 25.7588 14.4805 25.7588C21.6698 25.7588 25.604 19.8082 25.604 14.6423Z" fill="#928A97"/>
</svg>
