<svg width="37" height="37" viewBox="0 0 37 37" fill="none" xmlns="http://www.w3.org/2000/svg">
<path fill-rule="evenodd" clip-rule="evenodd" d="M18.1205 34.9085C27.4493 34.9085 35.0117 27.3461 35.0117 18.0174C35.0117 8.68865 27.4493 1.12622 18.1205 1.12622C8.7918 1.12622 1.22937 8.68865 1.22937 18.0174C1.22937 27.3461 8.7918 34.9085 18.1205 34.9085ZM13.4301 18.0174C13.4301 15.4344 15.538 13.3266 18.1209 13.3266C20.7039 13.3266 22.8117 15.4344 22.8117 18.0174C22.8117 20.6003 20.7039 22.7082 18.1209 22.7082C15.538 22.7082 13.4301 20.6003 13.4301 18.0174ZM10.9035 18.0174C10.9035 22.0114 14.1269 25.2348 18.1209 25.2348C22.115 25.2348 25.3384 22.0114 25.3384 18.0174C25.3384 14.0233 22.115 10.7999 18.1209 10.7999C14.1269 10.7999 10.9035 14.0233 10.9035 18.0174ZM23.9484 10.5043C23.9484 11.4369 24.7014 12.1899 25.634 12.1899C25.8554 12.1902 26.0747 12.1468 26.2794 12.0622C26.484 11.9776 26.6699 11.8534 26.8265 11.6969C26.9831 11.5403 27.1072 11.3543 27.1918 11.1497C27.2764 10.9451 27.3199 10.7258 27.3196 10.5043C27.3196 9.57181 26.5665 8.81874 25.634 8.81874C24.7014 8.81874 23.9484 9.57181 23.9484 10.5043Z" fill="#928A97"/>
</svg>
