<svg width="37" height="37" viewBox="0 0 37 37" fill="none" xmlns="http://www.w3.org/2000/svg">
<path d="M14.9278 16.5499C15.234 16.3282 15.3818 15.9622 15.3818 15.459C15.3923 15.2197 15.3431 14.9839 15.2375 14.7693C15.1425 14.5968 15.0017 14.4525 14.8293 14.3505C14.6505 14.2421 14.4519 14.1703 14.2451 14.1394C14.0199 14.0971 13.7912 14.076 13.566 14.0795H11.0921V16.8842H13.7701C14.2311 16.8877 14.6217 16.7751 14.9278 16.5499V16.5499ZM15.3431 19.0835C14.9982 18.8196 14.5372 18.6894 13.9636 18.6894H11.0851V21.9973H13.9073C14.1712 21.9973 14.414 21.9726 14.6498 21.9234C14.8729 21.8797 15.0855 21.7937 15.2762 21.67C15.4557 21.5539 15.5999 21.3955 15.709 21.1914C15.8146 20.9873 15.8674 20.7269 15.8674 20.4137C15.8674 19.7909 15.6914 19.351 15.3431 19.0835V19.0835ZM18.1547 2.2522C9.44875 2.2522 2.38965 9.3113 2.38965 18.0173C2.38965 26.7233 9.44875 33.7824 18.1547 33.7824C26.8607 33.7824 33.9198 26.7233 33.9198 18.0173C33.9198 9.3113 26.8607 2.2522 18.1547 2.2522ZM21.1987 12.3482H26.0689V13.5341H21.1987V12.3482ZM18.1547 22.1275C17.9269 22.5599 17.6017 22.9334 17.2046 23.2184C16.7894 23.5069 16.3284 23.7181 15.8392 23.8412C15.3275 23.9783 14.7996 24.0458 14.2698 24.0418H8.44232V12.0385H14.1079C14.6815 12.0385 15.2023 12.0913 15.6774 12.1898C16.1489 12.2884 16.5501 12.4573 16.8879 12.686C17.2222 12.9147 17.4861 13.2209 17.6726 13.6009C17.8556 13.9775 17.9506 14.449 17.9506 15.0085C17.9506 15.6138 17.8134 16.1135 17.5389 16.5182C17.2609 16.9229 16.8597 17.2501 16.3143 17.507C17.0568 17.7182 17.6023 18.0947 17.9612 18.6225C18.3272 19.1574 18.5066 19.7979 18.5066 20.551C18.5066 21.1633 18.3905 21.6876 18.1547 22.1275ZM27.9657 20.2694H21.6878C21.6878 20.9521 21.9236 21.6067 22.279 21.9586C22.6379 22.3069 23.1517 22.4829 23.8238 22.4829C24.3095 22.4829 24.7212 22.3597 25.0731 22.1169C25.4215 21.8741 25.6326 21.6172 25.71 21.3498H27.8144C27.4765 22.3949 26.9628 23.1409 26.266 23.5914C25.5763 24.0418 24.7317 24.267 23.7499 24.267C23.0637 24.267 22.4479 24.1544 21.8954 23.9397C21.3641 23.7321 20.8855 23.4154 20.4913 23.0072C20.1027 22.588 19.8024 22.095 19.6081 21.5574C19.3934 20.9627 19.2879 20.3363 19.2949 19.7064C19.2949 19.0554 19.404 18.4501 19.6151 17.8871C20.0198 16.7927 20.8608 15.9164 21.9341 15.4625C22.5077 15.2232 23.1236 15.1036 23.7464 15.1106C24.4854 15.1106 25.1259 15.2514 25.6819 15.5399C26.2171 15.8155 26.6819 16.2104 27.0402 16.6941C27.3956 17.1762 27.6455 17.7252 27.8038 18.3445C27.9551 18.9533 28.0079 19.5938 27.9657 20.2694V20.2694ZM23.6725 16.9053C23.2925 16.9053 22.9722 16.9721 22.7259 17.1023C22.4796 17.2325 22.2755 17.3944 22.1206 17.5809C21.9732 17.761 21.8642 17.9694 21.8004 18.1932C21.7441 18.3797 21.7054 18.5698 21.6913 18.7633H25.5798C25.5235 18.1545 25.3124 17.7041 25.0308 17.3874C24.7353 17.0742 24.2602 16.9053 23.6725 16.9053V16.9053Z" fill="#838397"/>
<path d="M35.046 18.0174C35.046 27.3461 27.4836 34.9085 18.1548 34.9085C8.8261 34.9085 1.26367 27.3461 1.26367 18.0174C1.26367 8.68865 8.8261 1.12622 18.1548 1.12622C27.4836 1.12622 35.046 8.68865 35.046 18.0174ZM5.35276 18.0174C5.35276 25.0878 11.0844 30.8195 18.1548 30.8195C25.2252 30.8195 30.9569 25.0878 30.9569 18.0174C30.9569 10.947 25.2252 5.21531 18.1548 5.21531C11.0844 5.21531 5.35276 10.947 5.35276 18.0174Z" fill="#838397"/>
</svg>
