<svg width="37" height="37" viewBox="0 0 37 37" fill="none" xmlns="http://www.w3.org/2000/svg">
<path fill-rule="evenodd" clip-rule="evenodd" d="M18.0171 34.9085C27.3459 34.9085 34.9083 27.3461 34.9083 18.0174C34.9083 8.68865 27.3459 1.12622 18.0171 1.12622C8.68841 1.12622 1.12598 8.68865 1.12598 18.0174C1.12598 27.3461 8.68841 34.9085 18.0171 34.9085ZM13.5022 32.447C14.9279 32.8926 16.4445 33.1328 18.0171 33.1328C19.5794 33.1328 21.0862 32.8958 22.5038 32.4558V28.7608C22.5042 28.1647 22.3859 27.5745 22.1557 27.0247C21.9255 26.4749 21.588 25.9765 21.163 25.5585C26.1248 24.6858 28.201 21.663 28.201 18.0666C28.201 16.3212 27.6204 14.7059 26.4802 13.411C27.1244 11.408 26.4571 9.69615 26.3051 9.30614C26.2976 9.28707 26.2914 9.27117 26.2867 9.25854C24.3864 9.08611 22.4158 10.5007 22.0181 10.8034C20.8463 10.4867 19.5161 10.3142 18.0241 10.3142C16.5391 10.3142 15.2124 10.4796 14.0511 10.7928C13.8857 10.6626 11.7603 9.01573 9.71574 9.19872C9.71188 9.20862 9.70711 9.2206 9.70154 9.23459C9.5548 9.60336 8.85167 11.3703 9.54331 13.4215C8.41723 14.713 7.84363 16.3141 7.84363 18.056C7.84363 21.6454 9.90576 24.6647 14.8535 25.5515C14.2623 26.1251 13.833 26.8641 13.6324 27.691C12.7139 27.9198 10.9016 28.152 9.97262 26.7761C8.68819 24.8793 7.57971 24.1791 6.49234 24.7386C6.25095 25.0171 6.56313 25.2271 7.00702 25.5256C7.40438 25.7928 7.90728 26.131 8.21313 26.6529C8.26 26.7302 8.30416 26.8638 8.36036 27.034C8.68817 28.0262 9.42586 30.2589 13.5022 29.7813V32.447Z" fill="#928A97"/>
</svg>
