<svg width="37" height="37" viewBox="0 0 37 37" fill="none" xmlns="http://www.w3.org/2000/svg">
<path d="M14.9278 17.0328C15.234 16.8111 15.3818 16.4451 15.3818 15.9419C15.3923 15.7026 15.3431 15.4668 15.2375 15.2522C15.1425 15.0797 15.0017 14.9355 14.8293 14.8334C14.6505 14.725 14.4519 14.6532 14.2451 14.6223C14.0199 14.58 13.7912 14.5589 13.566 14.5624H11.0921V17.3671H13.7701C14.2311 17.3706 14.6217 17.258 14.9278 17.0328V17.0328ZM15.3431 19.5664C14.9982 19.3025 14.5372 19.1723 13.9636 19.1723H11.0851V22.4802H13.9073C14.1712 22.4802 14.414 22.4555 14.6498 22.4063C14.8729 22.3627 15.0855 22.2766 15.2762 22.1529C15.4557 22.0368 15.5999 21.8784 15.709 21.6743C15.8146 21.4702 15.8674 21.2098 15.8674 20.8966C15.8674 20.2738 15.6914 19.8339 15.3431 19.5664V19.5664ZM18.1547 2.73511C9.44875 2.73511 2.38965 9.79421 2.38965 18.5002C2.38965 27.2062 9.44875 34.2653 18.1547 34.2653C26.8607 34.2653 33.9198 27.2062 33.9198 18.5002C33.9198 9.79421 26.8607 2.73511 18.1547 2.73511ZM21.1987 12.8311H26.0689V14.017H21.1987V12.8311ZM18.1547 22.6104C17.9269 23.0428 17.6017 23.4163 17.2046 23.7013C16.7894 23.9898 16.3284 24.201 15.8392 24.3241C15.3275 24.4613 14.7996 24.5287 14.2698 24.5247H8.44232V12.5214H14.1079C14.6815 12.5214 15.2023 12.5742 15.6774 12.6727C16.1489 12.7713 16.5501 12.9402 16.8879 13.1689C17.2222 13.3977 17.4861 13.7038 17.6726 14.0839C17.8556 14.4604 17.9506 14.9319 17.9506 15.4915C17.9506 16.0967 17.8134 16.5964 17.5389 17.0011C17.2609 17.4058 16.8597 17.7331 16.3143 17.9899C17.0568 18.2011 17.6023 18.5776 17.9612 19.1055C18.3272 19.6403 18.5066 20.2808 18.5066 21.0339C18.5066 21.6462 18.3905 22.1705 18.1547 22.6104ZM27.9657 20.7523H21.6878C21.6878 21.435 21.9236 22.0896 22.279 22.4415C22.6379 22.7898 23.1517 22.9658 23.8238 22.9658C24.3095 22.9658 24.7212 22.8426 25.0731 22.5998C25.4215 22.357 25.6326 22.1001 25.71 21.8327H27.8144C27.4765 22.8778 26.9628 23.6238 26.266 24.0743C25.5763 24.5247 24.7317 24.7499 23.7499 24.7499C23.0637 24.7499 22.4479 24.6373 21.8954 24.4227C21.3641 24.215 20.8855 23.8983 20.4913 23.4901C20.1027 23.0709 19.8024 22.5779 19.6081 22.0403C19.3934 21.4456 19.2879 20.8192 19.2949 20.1893C19.2949 19.5383 19.404 18.933 19.6151 18.37C20.0198 17.2756 20.8608 16.3994 21.9341 15.9454C22.5077 15.7061 23.1236 15.5865 23.7464 15.5935C24.4854 15.5935 25.1259 15.7343 25.6819 16.0228C26.2171 16.2984 26.6819 16.6933 27.0402 17.1771C27.3956 17.6592 27.6455 18.2081 27.8038 18.8275C27.9551 19.4362 28.0079 20.0767 27.9657 20.7523V20.7523ZM23.6725 17.3882C23.2925 17.3882 22.9722 17.4551 22.7259 17.5853C22.4796 17.7155 22.2755 17.8773 22.1206 18.0638C21.9732 18.2439 21.8642 18.4523 21.8004 18.6761C21.7441 18.8626 21.7054 19.0527 21.6913 19.2462H25.5798C25.5235 18.6374 25.3124 18.187 25.0308 17.8703C24.7353 17.5571 24.2602 17.3882 23.6725 17.3882V17.3882Z" fill="#838397"/>
<path d="M35.046 18.5003C35.046 27.829 27.4836 35.3915 18.1548 35.3915C8.8261 35.3915 1.26367 27.829 1.26367 18.5003C1.26367 9.17156 8.8261 1.60913 18.1548 1.60913C27.4836 1.60913 35.046 9.17156 35.046 18.5003ZM5.35276 18.5003C5.35276 25.5707 11.0844 31.3024 18.1548 31.3024C25.2252 31.3024 30.9569 25.5707 30.9569 18.5003C30.9569 11.4299 25.2252 5.69822 18.1548 5.69822C11.0844 5.69822 5.35276 11.4299 5.35276 18.5003Z" fill="#838397"/>
</svg>
