<svg width="37" height="37" viewBox="0 0 37 37" fill="none" xmlns="http://www.w3.org/2000/svg">
<path fill-rule="evenodd" clip-rule="evenodd" d="M18.0516 34.9085C27.3803 34.9085 34.9427 27.3461 34.9427 18.0174C34.9427 8.68865 27.3803 1.12622 18.0516 1.12622C8.72283 1.12622 1.1604 8.68865 1.1604 18.0174C1.1604 27.3461 8.72283 34.9085 18.0516 34.9085ZM13.5366 32.447C14.9624 32.8926 16.4789 33.1328 18.0516 33.1328C19.6138 33.1328 21.1207 32.8958 22.5382 32.4558V28.7608C22.5386 28.1647 22.4203 27.5745 22.1901 27.0247C21.9599 26.4749 21.6224 25.9765 21.1974 25.5585C26.1592 24.6858 28.2354 21.663 28.2354 18.0666C28.2354 16.3212 27.6548 14.7059 26.5146 13.411C27.1588 11.408 26.4915 9.69615 26.3395 9.30614C26.3321 9.28707 26.3258 9.27117 26.3211 9.25854C24.4208 9.08611 22.4502 10.5007 22.0526 10.8034C20.8807 10.4867 19.5506 10.3142 18.0585 10.3142C16.5735 10.3142 15.2468 10.4796 14.0856 10.7928C13.9202 10.6626 11.7947 9.01573 9.75016 9.19872C9.7463 9.20862 9.74153 9.2206 9.73597 9.23459C9.58923 9.60336 8.8861 11.3703 9.57773 13.4215C8.45165 14.713 7.87806 16.3141 7.87806 18.056C7.87806 21.6454 9.94019 24.6647 14.8879 25.5515C14.2967 26.1251 13.8674 26.8641 13.6668 27.691C12.7483 27.9198 10.9361 28.152 10.007 26.7761C8.72261 24.8793 7.61413 24.1791 6.52676 24.7386C6.28538 25.0171 6.59755 25.2271 7.04144 25.5256C7.4388 25.7928 7.94171 26.131 8.24755 26.6529C8.29442 26.7302 8.33858 26.8638 8.39479 27.034C8.7226 28.0262 9.46028 30.2589 13.5366 29.7813V32.447Z" fill="#928A97"/>
</svg>
