<svg width="35" height="34" viewBox="0 0 35 34" fill="none" xmlns="http://www.w3.org/2000/svg">
<path fill-rule="evenodd" clip-rule="evenodd" d="M17.1205 33.9085C26.4493 33.9085 34.0117 26.3461 34.0117 17.0174C34.0117 7.68865 26.4493 0.126221 17.1205 0.126221C7.7918 0.126221 0.22937 7.68865 0.22937 17.0174C0.22937 26.3461 7.7918 33.9085 17.1205 33.9085ZM12.4301 17.0174C12.4301 14.4344 14.538 12.3266 17.1209 12.3266C19.7039 12.3266 21.8117 14.4344 21.8117 17.0174C21.8117 19.6003 19.7039 21.7082 17.1209 21.7082C14.538 21.7082 12.4301 19.6003 12.4301 17.0174ZM9.90347 17.0174C9.90347 21.0114 13.1269 24.2348 17.1209 24.2348C21.115 24.2348 24.3384 21.0114 24.3384 17.0174C24.3384 13.0233 21.115 9.79993 17.1209 9.79993C13.1269 9.79993 9.90347 13.0233 9.90347 17.0174ZM22.9484 9.50434C22.9484 10.4369 23.7014 11.1899 24.634 11.1899C24.8554 11.1902 25.0747 11.1468 25.2794 11.0622C25.484 10.9776 25.6699 10.8534 25.8265 10.6969C25.9831 10.5403 26.1072 10.3543 26.1918 10.1497C26.2764 9.94509 26.3199 9.72577 26.3196 9.50434C26.3196 8.57181 25.5665 7.81874 24.634 7.81874C23.7014 7.81874 22.9484 8.57181 22.9484 9.50434Z" fill="#928A97"/>
</svg>
