<svg width="34" height="34" viewBox="0 0 34 34" fill="none" xmlns="http://www.w3.org/2000/svg">
<path fill-rule="evenodd" clip-rule="evenodd" d="M17.0171 33.9083C26.3459 33.9083 33.9083 26.3459 33.9083 17.0171C33.9083 7.68841 26.3459 0.125977 17.0171 0.125977C7.68841 0.125977 0.125977 7.68841 0.125977 17.0171C0.125977 26.3459 7.68841 33.9083 17.0171 33.9083ZM24.604 13.6423C24.604 13.4734 24.604 13.301 24.5934 13.1356C25.357 12.5831 26.0221 11.8899 26.5535 11.1087C25.8497 11.4148 25.0896 11.633 24.3014 11.7174C25.1142 11.2353 25.7265 10.4717 26.0186 9.56733C25.2656 10.0107 24.421 10.3415 23.5377 10.5069C22.8234 9.7468 21.8099 9.27526 20.6838 9.27526C18.298 9.27526 16.3132 11.4254 16.8657 14.0822C15.3111 14.0046 13.7901 13.6008 12.4018 12.8969C11.0134 12.193 9.78869 11.2048 8.80723 9.99665C8.46589 10.5738 8.27586 11.2389 8.27586 11.9673C8.2763 12.6107 8.4355 13.2441 8.73935 13.8113C9.04321 14.3785 9.48232 14.862 10.0178 15.2188C9.38083 15.1942 8.77204 15.0147 8.25475 14.7227V14.7719C8.25294 15.6742 8.56357 16.5493 9.13385 17.2485C9.70413 17.9478 10.4989 18.428 11.3831 18.6076C10.7638 18.766 10.2219 18.766 9.62012 18.678C10.1128 20.2264 11.5556 21.3524 13.2728 21.3876C11.9321 22.4363 10.25 23.0556 8.42014 23.0556C8.09639 23.0556 7.79376 23.0416 7.47705 23.0064C9.2084 24.1148 11.2635 24.7588 13.4805 24.7588C20.6698 24.7588 24.604 18.8082 24.604 13.6423Z" fill="#928A97"/>
</svg>
