<svg width="34" height="34" viewBox="0 0 34 34" fill="none" xmlns="http://www.w3.org/2000/svg">
<path fill-rule="evenodd" clip-rule="evenodd" d="M17.0171 33.9085C26.3459 33.9085 33.9083 26.3461 33.9083 17.0174C33.9083 7.68865 26.3459 0.126221 17.0171 0.126221C7.68841 0.126221 0.125977 7.68865 0.125977 17.0174C0.125977 26.3461 7.68841 33.9085 17.0171 33.9085ZM12.5022 31.447C13.9279 31.8926 15.4445 32.1328 17.0171 32.1328C18.5794 32.1328 20.0862 31.8958 21.5038 31.4558V27.7608C21.5042 27.1647 21.3859 26.5745 21.1557 26.0247C20.9255 25.4749 20.588 24.9765 20.163 24.5585C25.1248 23.6858 27.201 20.663 27.201 17.0666C27.201 15.3212 26.6204 13.7059 25.4802 12.411C26.1244 10.408 25.4571 8.69615 25.3051 8.30614C25.2976 8.28707 25.2914 8.27117 25.2867 8.25854C23.3864 8.08611 21.4158 9.50074 21.0181 9.80338C19.8463 9.48667 18.5161 9.31424 17.0241 9.31424C15.5391 9.31424 14.2124 9.47963 13.0511 9.79282C12.8857 9.66262 10.7603 8.01573 8.71574 8.19872C8.71188 8.20862 8.70711 8.2206 8.70154 8.23459C8.5548 8.60336 7.85167 10.3703 8.54331 12.4215C7.41723 13.713 6.84363 15.3141 6.84363 17.056C6.84363 20.6454 8.90576 23.6647 13.8535 24.5515C13.2623 25.1251 12.833 25.8641 12.6324 26.691C11.7139 26.9198 9.90164 27.152 8.97262 25.7761C7.68819 23.8793 6.57971 23.1791 5.49234 23.7386C5.25095 24.0171 5.56313 24.2271 6.00702 24.5256C6.40438 24.7928 6.90728 25.131 7.21313 25.6529C7.26 25.7302 7.30416 25.8638 7.36036 26.034C7.68817 27.0262 8.42586 29.2589 12.5022 28.7813V31.447Z" fill="#928A97"/>
</svg>
