<svg width="92" height="124" viewBox="0 0 92 124" fill="none" xmlns="http://www.w3.org/2000/svg">
<path d="M49.7882 123.324C51.0771 117.556 47.1806 113.484 44.9274 108.915C44.6519 108.347 43.2211 108.361 42.1189 108.042L40.4441 102.377L37.7154 104.237C36.7262 101.471 36.202 101.628 31.1019 106.618C32.8262 99.0899 32.3306 97.7467 28.0036 97.9655C26.4576 96.2351 30.5913 93.8107 27.2398 92.2739C23.5914 90.6095 23.644 94.7822 21.1532 95.5584C22.2116 93.3049 23.2704 91.0314 24.3282 88.7979C25.1337 87.5224 25.8721 86.2058 26.5405 84.8535C26.8943 83.9323 27.1059 82.3172 26.6177 81.8545C25.4456 80.754 24.0464 79.5376 22.05 80.9266C19.4602 82.742 16.6112 84.1558 13.5993 85.1205C16.0867 82.9238 18.7109 80.8507 20.9824 78.4884C21.8978 77.5116 22.1379 75.9573 22.6815 74.6608L18.6028 74.5558C19.6282 73.5819 20.7236 72.6098 21.859 71.6386C22.2676 71.3091 23.0965 71.3604 23.3362 70.9864C26.2437 66.4598 29.9458 62.1536 31.6939 57.1969C33.1856 52.8739 29.6854 48.5624 25.2476 46.4775C22.0749 44.9854 24.0228 41.9845 23.4209 39.7183C23.3244 38.5915 23.4009 37.4566 23.6476 36.353C17.8159 36.733 15.7363 41.3511 12.4868 44.7886C13.7909 40.7608 19.4537 37.2254 12.9836 33.6477L1.52336 28.0709L0.279866 18.4757C1.60113 16.8892 3.46538 14.4164 5.60234 12.2306C6.26014 11.5473 7.6889 11.6141 8.75704 11.3115C9.81005 10.9392 10.8954 10.6658 11.9991 10.4947C13.0614 10.422 15.0566 10.6334 15.0898 10.8943C15.4484 14.0646 17.6418 13.961 19.2977 13.7536C20.2407 15.9786 20.6967 18.8612 22.0529 19.4163C23.409 19.9714 26.0139 18.648 27.6425 17.5595C28.4574 16.9903 28.3271 15.0563 28.53 14.1713L47.5375 0.135741L48.0608 0.399296L46.5467 3.26127L46.8229 4.1887C50.3462 3.32908 53.8692 2.47945 57.0098 1.72001C57.3739 2.72972 57.4545 4.26231 58.1358 4.60996C61.2851 6.23154 64.2048 5.11629 66.7775 3.10183L69.3044 7.5283L68.2587 9.29199C69.7502 9.25035 70.7512 9.22612 71.7519 9.21187C70.1314 12.3212 71.4114 15.055 75.9291 17.9222C74.0208 20.1639 75.0696 21.0011 77.5177 21.4943C80.8015 22.169 81.7492 24.6042 79.7824 27.1745C77.8156 29.7447 78.9299 31.534 80.4558 33.6539C81.5447 35.4486 82.5421 37.2972 83.4443 39.1927C84.0768 40.2693 84.9223 41.2314 85.6363 42.2501C86.3504 43.2688 86.9062 44.2134 87.5608 45.2106L86.5403 45.9946L83.5989 43.6781C82.7462 42.996 81.9074 41.774 81.0474 41.7618C79.5979 41.7245 78.1473 42.5075 76.6956 42.9402C77.4735 43.8106 78.0816 45.0566 79.0502 45.5117C83.0839 47.3661 87.2236 48.9832 91.1231 51.3843C88.8882 50.7666 86.6003 50.2675 84.4399 49.4817C81.8149 48.4738 80.138 49.1109 79.4876 51.835C78.8337 54.2622 78.3128 56.7233 77.9274 59.2073C77.6589 60.8148 77.7741 62.4631 78.2638 64.0176C79.4062 67.048 81.1148 69.8429 82.3187 72.8148C82.6008 73.5123 81.9743 74.5366 81.9819 75.407C81.9516 76.5866 81.7409 78.1617 82.383 78.8685C87.0904 84.0813 88.1425 88.2898 85.2175 93.4963C89.3457 95.1731 89.6109 98.8611 89.8742 103.399C88.9155 101.947 87.8328 100.58 86.6382 99.3148C85.7003 98.5193 84.5292 98.0502 83.3015 97.9785C82.8416 97.9666 82.3578 99.6647 81.0607 100.702C81.113 99.148 81.0595 97.5925 80.9005 96.046C80.6131 95.2062 80.1756 94.4255 79.6093 93.742C78.2105 94.6803 76.8742 95.7085 75.6088 96.8201C75.1063 97.2973 75.3922 98.6251 74.8903 99.0824C71.0197 102.554 72.5285 106.504 73.596 110.503C74.0092 112.433 74.313 114.384 74.5059 116.348C72.9031 116.047 71.5195 115.781 70.1156 115.525C66.6499 107.153 66.1819 106.681 62.8951 108.457L60.1146 104.554C59.3783 105.955 58.4737 106.903 58.4587 107.872C58.4085 109.822 57.4765 110.278 55.8152 110.305C51.6015 110.397 49.557 113.265 50.3578 117.517C50.7088 119.427 52.6725 121.638 49.7795 123.274L49.7882 123.324ZM27.6087 19.2593C25.5291 20.0421 23.5009 20.9554 21.5364 21.9939C21.1301 22.2335 21.1981 23.8658 21.5589 24.6154C21.8247 25.1724 23.2285 25.8187 23.5946 25.588C25.6384 24.3002 28.2732 23.3677 27.6087 19.2593Z" fill="#000C24"/>
</svg>
