<svg width="20" height="20" viewBox="0 0 20 20" fill="none" xmlns="http://www.w3.org/2000/svg">
<path d="M10 0.833496C5.03079 0.833496 0.833374 5.03183 0.833374 10.0002C0.833374 14.9685 5.03079 19.1668 10 19.1668C14.9693 19.1668 19.1667 14.9685 19.1667 10.0002C19.1667 5.03183 14.9693 0.833496 10 0.833496ZM10 12.7502C10.9094 12.7502 11.6959 12.5072 12.102 12.1012L13.3981 13.3982C12.366 14.4295 10.826 14.5835 10 14.5835C7.47279 14.5835 5.41671 12.5274 5.41671 10.0002C5.41671 7.47291 7.47279 5.41683 10 5.41683C10.826 5.41683 12.3669 5.57083 13.3981 6.60208L12.102 7.89825C11.6968 7.49216 10.9103 7.25016 10 7.25016C8.50954 7.25016 7.25004 8.50966 7.25004 10.0002C7.25004 11.4907 8.50954 12.7502 10 12.7502Z" fill="#928A97"/>
</svg>
