<svg width="152" height="108" viewBox="0 0 152 108" fill="none" xmlns="http://www.w3.org/2000/svg">
<path d="M76.976 17.2411C77.8294 17.2921 78.6776 17.4092 79.513 17.5912C80.9423 17.9986 82.3716 18.0701 82.9434 16.5907C83.2507 15.8332 82.636 14.704 82.3573 13.3747C82.7861 13.3747 83.6509 13.0603 84.2869 13.3247C86.6381 14.3038 87.4814 13.3247 87.4886 10.9163C89.5254 10.7591 91.212 10.2017 91.4764 7.76467C91.5193 7.34302 92.5913 6.74985 93.213 6.72127C97.8654 6.47114 98.2156 6.15669 98.3371 2.00451L100.653 3.27661L100.903 0.346506C102.461 -0.368154 103.461 3.71255 105.555 1.34703C107.449 3.32664 109 3.19085 113.688 0.568051C113.216 1.34703 112.873 1.91161 112.487 2.53336C114.46 4.19852 115.232 1.56857 117.147 1.32559C113.231 5.17045 115.56 8.20776 117.383 11.5023C117.962 12.5386 117.547 14.2824 117.226 15.6116C116.861 17.0981 115.925 18.4703 115.539 19.9353C114.939 22.2222 114.603 24.5735 114.017 27.6036L111.873 25.1809C110.553 26.3231 109.303 27.5425 108.128 28.8328C107.699 29.3474 107.885 30.3693 107.835 30.7481L117.276 31.4628L117.347 31.0197C117.073 30.9337 116.808 30.8236 116.554 30.6909C116.283 30.475 116.032 30.2359 115.803 29.9763L118.069 28.6113C119.034 31.4699 118.784 35.229 122.871 35.9008C123.272 35.9651 123.743 35.5935 124.165 35.4291C126.831 37.4302 129.375 39.9458 132.955 41.3251C131.969 42.5972 130.725 43.469 132.669 44.7126C133.255 45.077 133.055 46.7065 133.22 47.7641L134.313 48.2859C134.631 47.7515 134.895 47.1865 135.099 46.5993C135.864 43.4905 138.401 41.8396 140.516 39.8243C141.66 38.738 142.517 38.6594 143.647 39.8886C144.64 40.9749 146.162 41.6181 146.998 42.7472C148.606 44.977 150.943 47.3997 151.043 49.8152C151.179 53.0598 149.085 56.1328 145.969 57.9623C143.318 59.5131 140.831 59.02 138.601 57.1119C136.571 55.3753 134.635 53.5386 132.548 51.609C133.527 54.1532 131.119 55.0394 129.768 56.6116C129.453 56.9833 129.475 57.6407 129.053 57.7051L125.165 60.0777C124.722 60.1563 123.858 60.335 122.979 60.4351C122.1 60.5351 121.006 60.8424 120.156 60.5923C118.606 60.1104 117.113 59.461 115.703 58.6556C114.91 58.2196 114.381 57.3191 113.617 56.8189C111.701 55.5682 110.901 53.5672 109.836 51.7162C109.672 51.4303 109.007 51.4232 109.236 51.4947C108.521 49.8295 108.042 48.636 107.513 47.3711L105.612 48.3216L105.055 46.7422L100.695 44.3266L97.3294 47.0495H99.5235C99.5235 49.3293 99.5235 51.5233 99.5235 53.7173C99.5968 54.3104 99.5556 54.9121 99.402 55.4896C98.623 57.1691 97.7725 58.8199 96.8363 60.4136C95.9001 62.0073 95.164 63.9869 92.9129 64.38C92.7628 64.38 92.5269 64.4657 92.4983 64.5658C91.5621 67.3101 88.6249 67.0599 86.7382 68.3749C86.3308 68.6608 85.4804 68.2963 84.7229 68.2248L83.4365 73.2275C81.7713 72.0912 79.5559 72.1269 79.5201 69.6542C78.8499 69.5525 78.1748 69.4857 77.4977 69.4541C77.4048 69.2468 77.0974 68.5107 76.7115 67.5959C74.3603 68.9395 71.7947 69.6113 71.3373 71.8839L65.4342 76.1719L63.8048 75.7573C63.0901 76.7722 62.6113 77.9799 61.7251 78.6946C59.5097 80.4813 60.6317 81.8748 61.7823 83.6258C62.7185 85.0551 63.1401 86.7845 63.7905 88.3782L62.7328 88.807L60.21 83.3542C58.7807 82.5895 57.5944 81.9249 56.4009 81.3817C55.7792 81.0959 54.8287 80.5885 54.4713 80.8314C51.87 82.5966 48.2038 82.6181 46.46 85.8341C45.8934 86.8576 45.17 87.7859 44.316 88.5855C42.9869 89.7544 42.1431 91.3783 41.9505 93.1379C41.3788 97.3686 40.3211 101.535 39.392 105.709C39.1798 106.354 38.8476 106.952 38.4129 107.474C38.3486 107.567 37.634 107.388 37.6268 107.302C37.4797 106.581 37.4797 105.837 37.6268 105.116C39.0133 101.292 40.364 97.4973 39.4706 93.3022C39.4335 93.0002 39.4635 92.6936 39.5587 92.4045C39.6538 92.1154 39.8117 91.8509 40.0209 91.6299C42.3007 89.5288 42.3221 86.5701 43.0439 83.8902C43.1654 83.4256 42.5723 82.7682 41.9862 82.3251C42.8152 78.5946 39.3063 78.2372 37.4553 76.472L34.9111 78.2372C35.1612 76.5935 37.248 75.2071 35.197 73.8278C33.9249 72.9702 32.5813 72.2198 30.9662 71.2336C31.3521 69.9329 30.5017 69.1253 28.4577 69.3755C28.0146 66.2309 27.1999 63.3366 24.1698 62.2289C25.0384 61.3374 25.8387 60.3818 26.5639 59.3702C26.7068 59.1344 25.9564 58.3483 25.3418 57.3835C25.7349 54.3676 25.2918 52.7096 22.3188 52.8668C23.8911 51.2731 23.7982 50.3512 21.4183 48.243C21.011 50.3298 20.6608 52.1093 20.3321 53.803H9.56929V53.6672L16.6373 52.5166C19.2458 52.0807 20.425 49.5865 19.9461 47.0138C19.6102 45.2271 19.1171 44.005 17.3233 43.9121C15.9181 43.8518 14.5141 44.0579 13.1855 44.5196C8.80461 46.0704 4.48806 47.7784 0 49.1935C1.09301 48.7183 2.16158 48.1888 3.20168 47.6069C5.6744 46.0418 8.20429 44.5196 10.4841 42.7258C11.8062 41.6895 14.4719 41.1893 15.8297 42.2541C17.9737 43.9193 18.9528 43.5548 19.646 41.0463C19.7961 40.5175 20.6179 40.0959 21.2111 39.7743C22.6404 39.0096 24.1626 38.445 25.499 37.566C26.0922 37.18 26.3066 36.2224 26.8212 35.2933L22.1687 34.8788V34.3643H25.6634C24.9834 33.1932 24.2365 32.0621 23.4265 30.9768C22.5118 29.9048 22.6333 29.183 23.8625 28.6041C25.7563 27.7037 26.5139 26.3172 26.0065 24.209C25.9064 23.7945 26.4281 23.2227 26.6711 22.7225C26.8569 22.3294 27.1999 21.9578 27.2285 21.5576C27.1712 20.5815 27.3324 19.6049 27.7002 18.699C27.2571 18.0629 26.814 17.4269 25.9636 16.2262L28.9294 16.7336C29.2224 15.0613 30.0086 13.3247 27.5501 12.5386C27.414 12.465 27.3079 12.3462 27.25 12.2027C26.4996 10.7162 25.7492 9.22257 24.8487 7.41449C26.328 8.24349 27.9217 8.84381 29.1795 9.90865C30.7446 11.1879 32.224 10.366 33.5461 9.90865C34.1965 9.67281 34.418 8.23634 34.7467 7.52169C35.6544 7.8147 36.8407 8.52935 37.9984 8.48647C39.8137 8.41501 41.5717 7.93619 43.3941 8.71517C43.6657 8.82951 44.4018 8.03624 44.8234 7.57886C45.4952 6.8642 46.0884 6.09237 46.7173 5.34198C47.2747 6.34964 47.8822 7.33587 48.3538 8.37928C48.4466 8.89445 48.4466 9.42206 48.3538 9.93723C50.5907 10.0444 50.1548 11.7239 50.1191 12.6458C51.9271 14.5968 54.1069 16.0261 54.7215 17.9557C55.1074 19.1349 55.3647 20.6285 56.2222 21.236C57.3586 22.0436 58.988 22.2723 60.4387 22.4152C60.7532 22.4152 61.3392 21.1216 61.575 20.3498C62.0396 18.799 63.1687 18.7275 65.863 20.407L62.7828 22.2365C63.0187 22.8082 63.2688 23.3871 63.426 23.7516C62.7181 23.8804 62.0353 24.1217 61.4035 24.4663C61.2392 24.6092 61.6822 25.5025 61.8466 26.0457C62.4684 25.7741 63.2759 25.6597 63.6833 25.2024C64.8911 23.8731 65.9488 22.408 67.1065 20.9144C67.8855 22.1293 68.1571 24.6092 70.2582 23.9874C70.9728 26.1314 71.5874 28.0253 72.2521 29.9405C72.4522 30.5123 73.0525 31.0983 72.9667 31.5914C72.5308 34.157 74.7605 33.9141 76.0469 34.6073C76.2899 34.7359 77.0045 34.4286 77.1975 34.1284C78.1694 32.5776 78.8198 30.7481 80.0561 29.4617C80.6779 28.8114 82.2859 29.1115 83.9868 28.9186C83.8081 28.2039 83.8724 26.6102 83.1935 26.1671C82.3716 25.624 80.9209 26.0385 79.3986 26.0385C80.6707 25.2595 82.1429 24.8379 82.5289 23.9517C82.8004 23.3157 81.6856 21.9935 81.0352 21.0931C80.2943 20.1018 79.4771 19.1699 78.5911 18.3059C78.091 17.8692 77.5555 17.4748 76.9902 17.1267L76.976 17.2411Z" fill="white"/>
</svg>
