<svg width="74" height="51" viewBox="0 0 74 51" fill="none" xmlns="http://www.w3.org/2000/svg">
<path d="M15.7528 28.1487C11.6037 24.5608 10.7066 24.4377 7.8611 26.9453L7.57429 24.4871L1.32855 17.6341C4.34448 15.1108 2.46537 12.3316 0.804649 9.61794C1.82382 8.3535 2.9519 7.18088 4.17594 6.11353C5.85566 4.91119 7.86451 4.25449 9.93008 4.23251C11.9957 4.21052 14.018 4.82433 15.7229 5.99065C17.553 7.17813 18.9248 7.90365 21.1942 6.01142C23.7908 3.84752 27.2807 2.72697 30.3243 1.07475C34.1694 -1.017 37.7188 0.604869 40.2793 2.95153C41.8914 4.44351 41.8062 7.7524 42.7297 11.1273C46.4295 13.5133 52.9521 12.3307 55.0624 8.07363C55.2417 11.9895 61.3164 13.8265 68.6562 11.9847C67.4231 14.4238 67.0778 16.5656 70.1406 17.6648C70.4579 17.773 70.5373 18.5753 70.6948 19.0596C71.4414 21.648 72.3413 24.1898 73.3898 26.6714C72.9071 27.9394 70.7612 29.3047 73.0775 30.2546L70.0267 38.4088C65.9589 37.8839 67.632 42.4485 65.5038 44.2943C61.3715 44.328 60.0183 45.2135 59.0744 48.8504L56.8386 47.1023L56.4615 50.0936C53.9963 49.4899 51.5023 48.4454 49.0728 48.3929C45.8668 48.3279 42.7013 47.6629 39.7402 46.4321C38.1362 45.8724 36.7587 44.8043 35.8172 43.3901C34.6021 41.6283 33.3837 42.3271 32.4475 43.7235C31.2413 45.503 30.163 47.3659 28.8184 49.0819C29.1746 44.9597 33.9397 42.4915 33.1171 37.5287C31.6714 37.7315 30.4467 37.9001 29.4326 38.044C30.4925 35.7305 31.7929 33.4032 32.6169 30.9236C33.3407 28.8416 30.5522 26.419 28.1847 26.6782C26.7403 26.831 25.005 26.2362 23.8592 26.8369C21.0828 28.2159 17.8568 24.1316 15.7528 28.1487Z" fill="white"/>
</svg>
