<svg width="31" height="30" viewBox="0 0 31 30" fill="none" xmlns="http://www.w3.org/2000/svg">
<path d="M30.1137 14.8744C28.7728 17.0504 27.2786 19.1279 25.6423 21.0914C24.3259 22.488 22.4044 23.2988 20.7561 24.3768C19.3408 25.3407 17.6039 25.9762 16.6002 27.2708C15.1744 29.0347 14.2144 29.4101 12.8305 26.8237C12.3814 29.8931 10.4887 29.5843 8.76878 29.1699C6.78 28.7086 6.06268 27.4297 6.18772 25.2922C6.44347 20.7973 5.64073 20.1164 1.61533 20.663C2.95116 16.9561 1.86826 13.5572 0.878905 10.4107C2.93614 8.21288 5.18131 5.70981 7.60048 3.44131C8.4208 2.66216 9.83419 2.5485 10.8793 1.97521C15.517 -0.596302 20.0801 -0.26879 24.0612 3.23482C25.2938 4.31689 27.0469 3.83185 28.2363 5.81311C29.5108 7.98663 31.6553 9.3923 30.4777 12.393C30.1888 13.1258 30.7713 14.2011 30.9578 15.1162L30.1137 14.8744Z" fill="white"/>
</svg>
