<svg width="36" height="34" viewBox="0 0 36 34" fill="none" xmlns="http://www.w3.org/2000/svg">
<path d="M34.1022 26.5017C30.0842 27.1485 28.2552 29.0321 29.6896 31.5999C27.9284 31.2344 26.0106 30.3448 24.2832 30.6104C22.7465 30.8509 21.4068 32.377 20.4294 33.042C15.4568 31.9137 10.7118 30.8813 5.99702 29.8396L1.76286 23.7286C2.71994 21.5225 1.80905 18.0479 0.514152 17.4444L1.06885 9.88617L0.0743248 9.66052L2.54354 9.33394C3.13304 4.69757 7.31639 3.45482 9.26131 1.7343C12.5526 1.33886 14.8859 1.23885 17.1391 0.756672C19.6942 0.202239 23.5476 2.45214 25.3491 3.969C29.0971 7.20652 29.6434 13.5727 35.7583 14.2403C34.7401 14.9343 33.4076 15.4002 33.2389 16.1261C33.0702 16.852 34.1244 17.8694 34.5103 18.8097C34.9145 19.5773 35.1325 20.4294 35.1465 21.2969C34.888 23.0486 34.5395 24.7859 34.1022 26.5017V26.5017Z" fill="#000C24"/>
</svg>
