<svg width="36" height="36" viewBox="0 0 36 36" fill="none" xmlns="http://www.w3.org/2000/svg">
<path d="M18.0862 0.720947C8.53348 0.720947 0.789673 8.46476 0.789673 18.0175C0.789673 27.5702 8.53348 35.3141 18.0862 35.3141C27.639 35.3141 35.3828 27.5702 35.3828 18.0175C35.3828 8.46476 27.639 0.720947 18.0862 0.720947ZM13.8522 25.1866H10.3496V13.915H13.8522V25.1866ZM12.0793 12.5312C10.973 12.5312 10.2577 11.7475 10.2577 10.7782C10.2577 9.78903 10.9946 9.0287 12.1243 9.0287C13.254 9.0287 13.9459 9.78903 13.9675 10.7782C13.9675 11.7475 13.254 12.5312 12.0793 12.5312ZM26.6444 25.1866H23.1419V18.94C23.1419 17.486 22.6338 16.4986 21.3672 16.4986C20.3996 16.4986 19.8249 17.1671 19.5708 17.8103C19.4772 18.0391 19.4537 18.3634 19.4537 18.6859V25.1848H15.9494V17.5094C15.9494 16.1023 15.9043 14.9257 15.8575 13.9132H18.9006L19.061 15.4789H19.1312C19.5925 14.7438 20.7222 13.6591 22.6122 13.6591C24.9166 13.6591 26.6444 15.2032 26.6444 18.522V25.1866Z" fill="#928A97"/>
</svg>
