<svg width="32" height="32" viewBox="0 0 32 32" fill="none" xmlns="http://www.w3.org/2000/svg">
<path d="M12.9278 14.5499C13.234 14.3282 13.3818 13.9622 13.3818 13.459C13.3923 13.2197 13.3431 12.9839 13.2375 12.7693C13.1425 12.5968 13.0017 12.4525 12.8293 12.3505C12.6505 12.2421 12.4519 12.1703 12.2451 12.1394C12.0199 12.0971 11.7912 12.076 11.566 12.0795H9.09212V14.8842H11.7701C12.2311 14.8877 12.6217 14.7751 12.9278 14.5499V14.5499ZM13.3431 17.0835C12.9982 16.8196 12.5372 16.6894 11.9636 16.6894H9.08508V19.9973H11.9073C12.1712 19.9973 12.414 19.9726 12.6498 19.9234C12.8729 19.8797 13.0855 19.7937 13.2762 19.67C13.4557 19.5539 13.5999 19.3955 13.709 19.1914C13.8146 18.9873 13.8674 18.7269 13.8674 18.4137C13.8674 17.7909 13.6914 17.351 13.3431 17.0835V17.0835ZM16.1547 0.252197C7.44875 0.252197 0.389648 7.3113 0.389648 16.0173C0.389648 24.7233 7.44875 31.7824 16.1547 31.7824C24.8607 31.7824 31.9198 24.7233 31.9198 16.0173C31.9198 7.3113 24.8607 0.252197 16.1547 0.252197ZM19.1987 10.3482H24.0689V11.5341H19.1987V10.3482ZM16.1547 20.1275C15.9269 20.5599 15.6017 20.9334 15.2046 21.2184C14.7894 21.5069 14.3284 21.7181 13.8392 21.8412C13.3275 21.9783 12.7996 22.0458 12.2698 22.0418H6.44232V10.0385H12.1079C12.6815 10.0385 13.2023 10.0913 13.6774 10.1898C14.1489 10.2884 14.5501 10.4573 14.8879 10.686C15.2222 10.9147 15.4861 11.2209 15.6726 11.6009C15.8556 11.9775 15.9506 12.449 15.9506 13.0085C15.9506 13.6138 15.8134 14.1135 15.5389 14.5182C15.2609 14.9229 14.8597 15.2501 14.3143 15.507C15.0568 15.7182 15.6023 16.0947 15.9612 16.6225C16.3272 17.1574 16.5066 17.7979 16.5066 18.551C16.5066 19.1633 16.3905 19.6876 16.1547 20.1275ZM25.9657 18.2694H19.6878C19.6878 18.9521 19.9236 19.6067 20.279 19.9586C20.6379 20.3069 21.1517 20.4829 21.8238 20.4829C22.3095 20.4829 22.7212 20.3597 23.0731 20.1169C23.4215 19.8741 23.6326 19.6172 23.71 19.3498H25.8144C25.4765 20.3949 24.9628 21.1409 24.266 21.5914C23.5763 22.0418 22.7317 22.267 21.7499 22.267C21.0637 22.267 20.4479 22.1544 19.8954 21.9397C19.3641 21.7321 18.8855 21.4154 18.4913 21.0072C18.1027 20.588 17.8024 20.095 17.6081 19.5574C17.3934 18.9627 17.2879 18.3363 17.2949 17.7064C17.2949 17.0554 17.404 16.4501 17.6151 15.8871C18.0198 14.7927 18.8608 13.9164 19.9341 13.4625C20.5077 13.2232 21.1236 13.1036 21.7464 13.1106C22.4854 13.1106 23.1259 13.2514 23.6819 13.5399C24.2171 13.8155 24.6819 14.2104 25.0402 14.6941C25.3956 15.1762 25.6455 15.7252 25.8038 16.3445C25.9551 16.9533 26.0079 17.5938 25.9657 18.2694V18.2694ZM21.6725 14.9053C21.2925 14.9053 20.9722 14.9721 20.7259 15.1023C20.4796 15.2325 20.2755 15.3944 20.1206 15.5809C19.9732 15.761 19.8642 15.9694 19.8004 16.1932C19.7441 16.3797 19.7054 16.5698 19.6913 16.7633H23.5798C23.5235 16.1545 23.3124 15.7041 23.0308 15.3874C22.7353 15.0742 22.2602 14.9053 21.6725 14.9053V14.9053Z" fill="#838397"/>
</svg>
