<svg width="162" height="101" viewBox="0 0 162 101" fill="none" xmlns="http://www.w3.org/2000/svg">
<path d="M29.1674 58.5939C30.6954 60.6339 29.6317 61.9269 27.7423 62.6585C25.1974 63.5934 22.5759 64.3962 19.9833 65.2397C13.8906 67.2103 7.79462 69.1774 1.6954 71.1411C1.42292 71.2341 1.0756 71.1251 0.521487 70.5007L24.4108 59.9519L24.2394 59.2273L19.7609 59.112L19.6651 58.5594C23.4686 57.3068 27.2357 55.9133 31.0928 54.9122C32.0394 54.6665 33.3117 55.7596 34.4515 56.169C35.0487 56.4693 35.7145 56.6072 36.3819 56.5689C41.0215 55.4779 45.6526 54.3267 49.2336 50.8377C49.4683 50.6083 49.7537 50.4375 50.0667 50.339C54.2401 49.0959 58.4406 47.9637 62.5755 46.6596C65.5298 45.7691 68.4112 44.6527 71.1943 43.3203C71.7316 43.044 71.4632 41.0364 71.4441 39.8356C71.4644 39.0458 70.8193 38.0689 71.1136 37.5163C72.1632 35.6027 73.119 33.4466 74.7245 32.0874C77.68 29.5826 76.2931 27.8864 74.6305 26.4131L75.1213 22.1143L74.3457 21.9343C76.8961 19.229 79.6327 16.6786 81.8886 13.7557C82.6741 12.7756 82.2844 10.8149 82.3768 9.94699C84.0918 7.83042 85.5852 5.77819 87.3032 3.93179C89.7517 1.30392 93.1754 1.202 96.3829 0.954454C98.1784 0.953389 99.971 1.09652 101.744 1.38252C102.042 1.36965 102.339 1.42875 102.609 1.55485C105.437 3.6283 108.245 5.70124 111.012 7.77314C108.354 8.85508 108.524 10.41 111.145 12.3481C112.215 13.1359 112.767 14.5906 113.691 15.6147C115.637 17.7555 120.031 18.0386 122.781 16.919C124.206 16.3355 126.113 16.8947 127.902 16.9408L126.868 12.0126C129.176 13.2824 130.921 13.8875 132.202 15.0309C134.764 17.3275 134.737 20.3278 134.382 23.6298C133.892 28.2887 134.31 33.021 137.543 36.8555C138.271 37.7145 139.653 38.0202 140.285 38.3565C138.919 41.3981 137.724 44.5132 136.704 47.6875C136.017 50.2507 137.309 52.1545 140.034 53.145C141.59 53.7152 142.898 54.9893 144.314 55.9461L143.812 57.1835C141.438 56.9124 139.068 56.5012 136.689 56.41C135.543 56.5302 134.418 56.8075 133.347 57.2343C133.786 58.436 133.896 59.9893 134.726 60.7809C137.655 63.5872 141.123 65.6372 142.134 70.2647C142.654 72.6189 145.387 74.4798 147.221 76.6877C145.521 79.785 146.555 82.3625 148.939 84.9347C153.154 89.4746 157.112 94.2381 161.163 98.9339C161.41 99.3972 161.589 99.8937 161.695 100.408C158.556 101.498 157.412 99.2975 155.948 97.4892C150.745 90.9532 145.593 84.3584 140.103 78.075C138.365 76.0296 135.674 74.86 133.33 73.4192C132.927 73.1687 132.135 73.6085 131.514 73.6525C130.371 73.7432 128.917 74.2659 128.12 73.7552C124.488 71.471 121.702 73.59 119.767 74.5406L116.645 81.5725C116.053 80.3452 115.374 79.1611 114.616 78.0291C114.005 77.2532 113.084 76.1191 112.383 76.1711C111.272 76.4219 110.284 77.0506 109.586 77.9497C108.982 78.7362 108.612 79.6763 108.516 80.6631C108.11 83.9837 106.5 83.9723 104.013 82.6379C102.787 82.021 101.371 81.899 100.057 82.2972C98.7437 82.6953 97.6334 83.5832 96.956 84.777C96.3184 85.8409 94.7539 87.5512 94.4382 87.383C92.8002 86.5327 91.3367 85.382 90.124 83.9909C88.5838 82.015 87.1508 79.9579 85.8312 77.8284L83.4102 82.4976C82.9125 81.6245 82.6045 81.1564 82.3671 80.6602C81.6762 79.1319 80.9609 78.1632 79.2885 79.7907C77.7701 81.2621 76.1676 81.3409 75.7403 78.8991C75.1121 75.3217 74.7657 71.6816 74.3787 68.0604C74.3362 67.0602 74.362 66.0582 74.4559 65.0614C74.0123 64.8099 73.8177 64.5948 73.647 64.6205C67.1316 65.5231 66.7416 64.7428 68.859 58.2652C69.5646 56.1126 69.4767 52.9193 68.3222 51.139C66.8598 48.8806 64.1293 47.6999 60.8228 49.0753C54.513 51.7038 48.1177 54.1601 41.6322 56.2338C37.7821 57.3551 33.6206 57.7482 29.1674 58.5939Z" fill="white"/>
</svg>
