<svg width="31" height="32" viewBox="0 0 31 32" fill="none" xmlns="http://www.w3.org/2000/svg">
<path d="M24.0827 1.78639L23.0846 4.03144C25.0646 4.83266 26.877 5.53955 28.0358 5.98952L29.8244 9.56673C29.8652 11.4168 30.0688 13.2598 30.4328 15.0742C31.2326 17.8157 28.5417 19.367 28.469 21.8059C28.3187 22.9584 27.8887 24.0567 27.2162 25.0047C26.8925 25.5366 26.0376 25.7146 25.5356 26.1719C23.2238 28.5226 20.3234 30.2098 17.1371 31.0574C12.434 32.2867 9.07191 30.3796 6.03539 28.6509C2.37808 26.5561 0.684193 22.4111 0.384762 17.7219C0.0587254 12.5117 3.6899 9.40415 5.70348 5.40464C7.39302 1.94697 11.64 2.89656 14.0138 0.446832C14.6098 -0.168035 16.931 0.982092 18.4759 1.20192C20.1599 1.45534 21.8975 1.57009 24.0827 1.78639Z" fill="#000C24"/>
</svg>
