<svg width="162" height="101" viewBox="0 0 162 101" fill="none" xmlns="http://www.w3.org/2000/svg">
<path d="M29.1674 58.5936C30.6954 60.6336 29.6317 61.9267 27.7423 62.6583C25.1974 63.5931 22.5759 64.3959 19.9833 65.2395C13.8906 67.21 7.79462 69.1771 1.6954 71.1408C1.42292 71.2339 1.0756 71.1249 0.521487 70.5004L24.4108 59.9517L24.2394 59.227L19.7609 59.1117L19.6651 58.5591C23.4686 57.3066 27.2357 55.913 31.0928 54.912C32.0394 54.6662 33.3117 55.7593 34.4515 56.1688C35.0487 56.4691 35.7145 56.607 36.3819 56.5686C41.0215 55.4776 45.6526 54.3264 49.2336 50.8374C49.4683 50.6081 49.7537 50.4372 50.0667 50.3387C54.2401 49.0957 58.4406 47.9634 62.5755 46.6594C65.5298 45.7688 68.4112 44.6524 71.1943 43.3201C71.7316 43.0438 71.4632 41.0362 71.4441 39.8353C71.4644 39.0456 70.8193 38.0687 71.1136 37.516C72.1632 35.6024 73.119 33.4463 74.7245 32.0872C77.68 29.5824 76.2931 27.8861 74.6305 26.4129L75.1213 22.1141L74.3457 21.9341C76.8961 19.2288 79.6327 16.6784 81.8886 13.7555C82.6741 12.7753 82.2844 10.8147 82.3768 9.94675C84.0918 7.83018 85.5852 5.77794 87.3032 3.93154C89.7517 1.30368 93.1754 1.20176 96.3829 0.95421C98.1784 0.953145 99.971 1.09628 101.744 1.38228C102.042 1.3694 102.339 1.42851 102.609 1.55461C105.437 3.62806 108.245 5.70099 111.012 7.7729C108.354 8.85484 108.524 10.4097 111.145 12.3478C112.215 13.1356 112.767 14.5903 113.691 15.6145C115.637 17.7552 120.031 18.0384 122.781 16.9188C124.206 16.3353 126.113 16.8945 127.902 16.9406L126.868 12.0123C129.176 13.2822 130.921 13.8873 132.202 15.0306C134.764 17.3273 134.737 20.3276 134.382 23.6295C133.892 28.2884 134.31 33.0208 137.543 36.8552C138.271 37.7143 139.653 38.0199 140.285 38.3563C138.919 41.3979 137.724 44.513 136.704 47.6872C136.017 50.2504 137.309 52.1543 140.034 53.1448C141.59 53.715 142.898 54.9891 144.314 55.9458L143.812 57.1833C141.438 56.9121 139.068 56.501 136.689 56.4098C135.543 56.5299 134.418 56.8073 133.347 57.234C133.786 58.4357 133.896 59.9891 134.726 60.7807C137.655 63.587 141.123 65.6369 142.134 70.2645C142.654 72.6186 145.387 74.4796 147.221 76.6875C145.521 79.7848 146.555 82.3622 148.939 84.9344C153.154 89.4744 157.112 94.2378 161.163 98.9336C161.41 99.397 161.589 99.8935 161.695 100.408C158.556 101.497 157.412 99.2972 155.948 97.489C150.745 90.9529 145.593 84.3581 140.103 78.0748C138.365 76.0294 135.674 74.8598 133.33 73.419C132.927 73.1685 132.135 73.6083 131.514 73.6523C130.371 73.7429 128.917 74.2657 128.12 73.755C124.488 71.4708 121.702 73.5898 119.767 74.5403L116.645 81.5723C116.053 80.3449 115.374 79.1609 114.616 78.0289C114.005 77.2529 113.084 76.1189 112.383 76.1708C111.272 76.4216 110.284 77.0503 109.586 77.9494C108.982 78.736 108.612 79.6761 108.516 80.6628C108.11 83.9835 106.5 83.972 104.013 82.6376C102.787 82.0208 101.371 81.8988 100.057 82.297C98.7437 82.6951 97.6334 83.5829 96.956 84.7767C96.3184 85.8407 94.7539 87.551 94.4382 87.3828C92.8002 86.5325 91.3367 85.3818 90.124 83.9906C88.5838 82.0148 87.1508 79.9576 85.8312 77.8281L83.4102 82.4974C82.9125 81.6243 82.6045 81.1562 82.3671 80.6599C81.6762 79.1316 80.9609 78.1629 79.2885 79.7904C77.7701 81.2618 76.1676 81.3406 75.7403 78.8988C75.1121 75.3215 74.7657 71.6814 74.3787 68.0602C74.3362 67.0599 74.362 66.0579 74.4559 65.0612C74.0123 64.8097 73.8177 64.5946 73.647 64.6202C67.1316 65.5229 66.7416 64.7426 68.859 58.2649C69.5646 56.1124 69.4767 52.919 68.3222 51.1387C66.8598 48.8803 64.1293 47.6997 60.8228 49.0751C54.513 51.7036 48.1177 54.1598 41.6322 56.2336C37.7821 57.3549 33.6206 57.7479 29.1674 58.5936Z" fill="#000C24"/>
</svg>
